HIERARCHY
ROOT Hips
{
	OFFSET	-0.00149125 0.00142054 0.000518047
	CHANNELS 6 Xposition Yposition Zposition Xrotation Yrotation Zrotation

		End Site
		{
			OFFSET	0.0	0.0	0.0
		}


}


MOTION
Frames:   31
Frame Time: 0.05
0.0   0.0    0.0  0 170 0
-0.000470838 -2.0654e-05 -9.20595e-05 0 170 0
-0.000941675 -4.1308e-05 -0.000184119 0 170 0
-0.00141251 -6.1962e-05 -0.000276179 0 170 0
-0.00188335 -8.2616e-05 -0.000368238 0 170 0
-0.00235419 -0.00010327 -0.000460297 0 170 0
-0.00282502 -0.000123924 -0.000552357 0 170 0
-0.00329586 -0.000144578 -0.000644417 0 170 0
-0.0037667 -0.000165232 -0.000736476 0 170 0
-0.00423754 -0.000185886 -0.000828535 0 170 0
-0.00470838 -0.00020654 -0.000920595 0 170 0
-0.00502341 -0.00029114 -0.00108324 0 169 0
-0.00533845 -0.00037574 -0.00124589 0 168 0
-0.00565349 -0.00046034 -0.00140853 0 167 0
-0.00596853 -0.00054494 -0.00157118 0 166 0
-0.00628356 -0.00062954 -0.00173382 0 165 0
-0.0065986 -0.00071414 -0.00189647 0 164 0
-0.00691364 -0.00079874 -0.00205911 0 163 0
-0.00722868 -0.00088334 -0.00222176 0 162 0
-0.00754371 -0.00096794 -0.0023844 0 161 0
-0.00785875 -0.00105254 -0.00254705 0 160 0
-0.00785875 -0.00105254 -0.00254705 0 160 0
-0.00785875 -0.00105254 -0.00254705 0 160 0
-0.00785875 -0.00105254 -0.00254705 0 160 0
-0.00785875 -0.00105254 -0.00254705 0 160 0
-0.00785875 -0.00105254 -0.00254705 0 160 0
-0.00748215 -0.00123554 -0.00266115 0 160 0
-0.00728055 -0.00141854 -0.00250975 0 160 0
-0.00707895 -0.00160154 -0.00235835 0 160 0
-0.00687735 -0.00178454 -0.00220695 0 160 0
-0.00667575 -0.00196754 -0.00205555 0 160 0
